<svg width="123" height="30" viewBox="0 0 123 30" fill="none" xmlns="http://www.w3.org/2000/svg">
<g clip-path="url(#clip0_1_13263)">
<path d="M13.2048 21.1858C12.1003 21.3199 11.5724 22.9713 11.1487 23.8252C10.4749 25.152 9.88448 26.5211 9.19681 27.8407C8.91896 28.37 8.2035 30.099 7.41163 30.0002C5.90429 29.8167 4.54978 29.5415 3.34114 29.1887C2.23669 28.864 1.33368 28.4971 0.632107 28.0877C0.507075 28.0172 0.430666 27.8831 0.430666 27.7349V17.5302C0.430666 17.375 0.514021 17.2338 0.652946 17.1703C0.777978 17.1068 0.923849 17.1139 1.03499 17.1844C1.99357 17.7913 3.19527 18.2924 4.65397 18.6947C6.20298 19.1251 7.90481 19.3651 9.75945 19.4215C10.4888 19.4498 11.1695 19.4357 11.7878 19.3792C12.2323 19.3369 12.5935 19.2804 12.8783 19.2098C13.052 19.1675 13.177 19.0052 13.177 18.8146V18.1865C13.177 17.9466 12.9756 17.7631 12.7463 17.7843C12.5657 17.7984 12.3712 17.8125 12.1628 17.8266C11.7669 17.8549 11.4057 17.869 11.0653 17.869C7.3769 17.869 4.6123 17.1844 2.77155 15.8083C0.923849 14.4462 0 12.4491 0 9.81675C0 7.60786 0.79187 5.88591 2.00746 4.12162C2.82712 2.95013 3.72318 1.80687 4.84847 0.917665C5.42501 0.466006 6.23771 -0.282053 7.0018 0.106091C8.17571 0.691836 8.91201 2.51964 9.50244 3.60644C10.2179 4.91202 10.8917 6.25288 11.7461 7.46671C12.2809 8.22889 13.0867 9.35098 14.1217 9.35098C16.6848 9.35098 19.0535 -0.282053 20.8665 0.0355194C22.5614 0.33192 23.9923 0.734178 25.1662 1.25641C25.3121 1.31992 25.4093 1.46812 25.4093 1.63044V11.821C25.4093 11.9833 25.3121 12.1315 25.1662 12.195L25.0759 12.2303C24.9648 12.2797 24.8397 12.2726 24.7355 12.2162C23.8395 11.7434 22.7489 11.3552 21.4639 11.0588C20.0954 10.7412 18.602 10.586 16.9696 10.586C16.2681 10.586 15.6082 10.6283 15.0039 10.713C14.6079 10.7695 14.3023 10.833 14.08 10.8965C13.9133 10.9459 13.7952 11.1082 13.7952 11.2846V11.8563C13.7952 12.0892 13.9967 12.2797 14.2259 12.2585C14.4134 12.2444 14.6218 12.2303 14.851 12.2091C15.2748 12.1809 15.8235 12.1668 16.4973 12.1668C19.9287 12.1668 22.5405 12.8584 24.3257 14.2486C28.7713 17.6996 27.0417 24.418 23.5477 27.8337C22.4988 28.857 20.415 30.9529 19.0605 29.4286C18.0116 28.2501 17.4281 26.6057 16.7335 25.2084C16.1014 23.9311 15.6499 22.4138 14.4412 21.5599C14.1147 21.327 13.7257 21.1576 13.3298 21.1647C13.2951 21.1717 13.2465 21.1788 13.2048 21.1858Z" fill="#92CD00"/>
<path d="M13.2048 21.1858C12.1003 21.3199 11.5724 22.9713 11.1487 23.8252C10.4749 25.152 9.88448 26.5211 9.19681 27.8407C8.91896 28.37 8.2035 30.099 7.41163 30.0002C5.90429 29.8167 4.54978 29.5415 3.34114 29.1887C2.23669 28.864 1.33368 28.4971 0.632107 28.0877C0.507075 28.0172 0.430666 27.8831 0.430666 27.7349V17.5302C0.430666 17.375 0.514021 17.2338 0.652946 17.1703C0.777978 17.1068 0.923849 17.1139 1.03499 17.1844C1.99357 17.7913 3.19527 18.2924 4.65397 18.6947C6.20298 19.1251 7.90481 19.3651 9.75945 19.4215C10.4888 19.4498 11.1695 19.4357 11.7878 19.3792C12.2323 19.3369 12.5935 19.2804 12.8783 19.2098C13.052 19.1675 13.177 19.0052 13.177 18.8146V18.1865C13.177 17.9466 12.9756 17.7631 12.7463 17.7843C12.5657 17.7984 12.3712 17.8125 12.1628 17.8266C11.7669 17.8549 11.4057 17.869 11.0653 17.869C7.3769 17.869 4.6123 17.1844 2.77155 15.8083C0.923849 14.4462 0 12.4491 0 9.81675C0 7.60786 0.79187 5.88591 2.00746 4.12162C2.82712 2.95013 3.72318 1.80687 4.84847 0.917665C5.42501 0.466006 6.23771 -0.282053 7.0018 0.106091C8.17571 0.691836 8.91201 2.51964 9.50244 3.60644C10.2179 4.91202 10.8917 6.25288 11.7461 7.46671C12.2809 8.22889 13.0867 9.35098 14.1217 9.35098C16.6848 9.35098 19.0535 -0.282053 20.8665 0.0355194C22.5614 0.33192 23.9923 0.734178 25.1662 1.25641C25.3121 1.31992 25.4093 1.46812 25.4093 1.63044V11.821C25.4093 11.9833 25.3121 12.1315 25.1662 12.195L25.0759 12.2303C24.9648 12.2797 24.8397 12.2726 24.7355 12.2162C23.8395 11.7434 22.7489 11.3552 21.4639 11.0588C20.0954 10.7412 18.602 10.586 16.9696 10.586C16.2681 10.586 15.6082 10.6283 15.0039 10.713C14.6079 10.7695 14.3023 10.833 14.08 10.8965C13.9133 10.9459 13.7952 11.1082 13.7952 11.2846V11.8563C13.7952 12.0892 13.9967 12.2797 14.2259 12.2585C14.4134 12.2444 14.6218 12.2303 14.851 12.2091C15.2748 12.1809 15.8235 12.1668 16.4973 12.1668C19.9287 12.1668 22.5405 12.8584 24.3257 14.2486C28.7713 17.6996 27.0417 24.418 23.5477 27.8337C22.4988 28.857 20.415 30.9529 19.0605 29.4286C18.0116 28.2501 17.4281 26.6057 16.7335 25.2084C16.1014 23.9311 15.6499 22.4138 14.4412 21.5599C14.1147 21.327 13.7257 21.1576 13.3298 21.1647C13.2951 21.1717 13.2465 21.1788 13.2048 21.1858Z" fill="#92CD00"/>
</g>
<path d="M45.2741 13.3707C45.241 13.0062 45.0935 12.7228 44.8317 12.5206C44.5732 12.3151 44.2036 12.2124 43.723 12.2124C43.4048 12.2124 43.1397 12.2538 42.9276 12.3366C42.7154 12.4195 42.5563 12.5339 42.4503 12.6797C42.3442 12.8222 42.2895 12.9863 42.2862 13.1719C42.2796 13.3243 42.3094 13.4586 42.3757 13.5746C42.4453 13.6906 42.5447 13.7933 42.674 13.8828C42.8066 13.969 42.9657 14.0452 43.1513 14.1115C43.3369 14.1778 43.5457 14.2358 43.7777 14.2855L44.6527 14.4844C45.1565 14.5938 45.6006 14.7396 45.9851 14.9219C46.3729 15.1042 46.6977 15.3213 46.9595 15.5732C47.2247 15.825 47.4252 16.1151 47.5611 16.4432C47.697 16.7713 47.7666 17.1392 47.7699 17.5469C47.7666 18.1899 47.6042 18.7417 47.2827 19.2024C46.9612 19.6631 46.4988 20.0161 45.8956 20.2614C45.2957 20.5066 44.5715 20.6293 43.723 20.6293C42.8712 20.6293 42.1288 20.5017 41.4957 20.2464C40.8627 19.9912 40.3705 19.6035 40.0192 19.0831C39.6679 18.5627 39.4872 17.9048 39.4773 17.1094H41.8338C41.8537 17.4375 41.9415 17.7109 42.0973 17.9297C42.2531 18.1484 42.4669 18.3142 42.7386 18.4268C43.0137 18.5395 43.3319 18.5959 43.6932 18.5959C44.0246 18.5959 44.3063 18.5511 44.5384 18.4616C44.7737 18.3722 44.9543 18.2479 45.0803 18.0888C45.2062 17.9297 45.2708 17.7474 45.2741 17.5419C45.2708 17.3497 45.2112 17.1856 45.0952 17.0497C44.9792 16.9105 44.8002 16.7912 44.5582 16.6918C44.3196 16.589 44.0147 16.4946 43.6435 16.4084L42.5795 16.1598C41.6979 15.9576 41.0036 15.6312 40.4964 15.1804C39.9893 14.7263 39.7375 14.1132 39.7408 13.3409C39.7375 12.7112 39.9065 12.1593 40.2479 11.6854C40.5893 11.2114 41.0616 10.8419 41.6648 10.5767C42.268 10.3116 42.9557 10.179 43.728 10.179C44.5168 10.179 45.2012 10.3132 45.7812 10.5817C46.3646 10.8468 46.817 11.2197 47.1385 11.7003C47.46 12.1809 47.6241 12.7377 47.6307 13.3707H45.2741ZM51.4439 16.1449V20.5H49.0128V10.3182H51.3643V14.2656H51.4489C51.6212 13.795 51.9029 13.4271 52.294 13.1619C52.6884 12.8968 53.1707 12.7642 53.7408 12.7642C54.2777 12.7642 54.745 12.8835 55.1428 13.1222C55.5405 13.3575 55.8487 13.6906 56.0675 14.1214C56.2895 14.5523 56.3989 15.0561 56.3956 15.6328V20.5H53.9645V16.1101C53.9678 15.6858 53.8617 15.3544 53.6463 15.1158C53.4309 14.8771 53.1276 14.7578 52.7365 14.7578C52.4813 14.7578 52.2559 14.8142 52.0604 14.9268C51.8681 15.0362 51.7173 15.1937 51.608 15.3991C51.5019 15.6046 51.4472 15.8532 51.4439 16.1449ZM60.0659 20.6293C59.5787 20.6293 59.1461 20.5481 58.7683 20.3857C58.3938 20.2199 58.0971 19.9714 57.8784 19.6399C57.6629 19.3052 57.5552 18.8859 57.5552 18.3821C57.5552 17.9579 57.6298 17.5999 57.7789 17.3082C57.9281 17.0166 58.1336 16.7796 58.3954 16.5973C58.6573 16.415 58.9589 16.2775 59.3002 16.1847C59.6416 16.0885 60.0062 16.0239 60.394 15.9908C60.8282 15.951 61.1779 15.9096 61.443 15.8665C61.7082 15.8201 61.9004 15.7554 62.0197 15.6726C62.1423 15.5864 62.2037 15.4654 62.2037 15.3097V15.2848C62.2037 15.0296 62.1158 14.8324 61.9402 14.6932C61.7645 14.554 61.5275 14.4844 61.2292 14.4844C60.9077 14.4844 60.6492 14.554 60.4537 14.6932C60.2581 14.8324 60.1338 15.0246 60.0808 15.2699L57.8386 15.1903C57.9049 14.7263 58.0756 14.312 58.3507 13.9474C58.6291 13.5795 59.0102 13.2912 59.4941 13.0824C59.9814 12.8703 60.5663 12.7642 61.2491 12.7642C61.7363 12.7642 62.1854 12.8222 62.5964 12.9382C63.0074 13.0509 63.3654 13.2166 63.6703 13.4354C63.9752 13.6508 64.2105 13.916 64.3762 14.2308C64.5453 14.5457 64.6298 14.9053 64.6298 15.3097V20.5H62.3429V19.4361H62.2832C62.1473 19.6946 61.9733 19.9134 61.7612 20.0923C61.5524 20.2713 61.3055 20.4055 61.0204 20.495C60.7387 20.5845 60.4205 20.6293 60.0659 20.6293ZM60.8166 19.0384C61.0784 19.0384 61.3137 18.9853 61.5225 18.8793C61.7347 18.7732 61.9037 18.6274 62.0297 18.4418C62.1556 18.2528 62.2186 18.0341 62.2186 17.7855V17.0597C62.149 17.0961 62.0645 17.1293 61.965 17.1591C61.8689 17.1889 61.7628 17.2171 61.6468 17.2436C61.5308 17.2701 61.4115 17.2933 61.2889 17.3132C61.1663 17.3331 61.0486 17.3513 60.9359 17.3679C60.7072 17.4044 60.5117 17.4607 60.3493 17.5369C60.1902 17.6132 60.0675 17.7126 59.9814 17.8352C59.8985 17.9545 59.8571 18.0971 59.8571 18.2628C59.8571 18.5147 59.9466 18.7069 60.1255 18.8395C60.3078 18.9721 60.5382 19.0384 60.8166 19.0384ZM68.9054 20.6094C68.3419 20.6094 67.8298 20.4635 67.3691 20.1719C66.9084 19.8802 66.5405 19.4427 66.2654 18.8594C65.9904 18.276 65.8528 17.5518 65.8528 16.6868C65.8528 15.7886 65.9953 15.0495 66.2804 14.4695C66.5654 13.8894 66.9383 13.4602 67.399 13.1818C67.863 12.9034 68.3618 12.7642 68.8954 12.7642C69.2965 12.7642 69.6395 12.8338 69.9245 12.973C70.2096 13.1089 70.4449 13.2846 70.6305 13.5C70.8161 13.7154 70.957 13.9392 71.0531 14.1712H71.1028V10.3182H73.5339V20.5H71.1277V19.2621H71.0531C70.9503 19.4974 70.8045 19.7178 70.6156 19.9233C70.4267 20.1288 70.1897 20.2945 69.9047 20.4205C69.6229 20.5464 69.2898 20.6094 68.9054 20.6094ZM69.7505 18.7152C70.0455 18.7152 70.2974 18.6323 70.5062 18.4666C70.715 18.2976 70.8758 18.0606 70.9885 17.7557C71.1011 17.4508 71.1575 17.0928 71.1575 16.6818C71.1575 16.2642 71.1011 15.9046 70.9885 15.603C70.8791 15.3014 70.7183 15.0694 70.5062 14.907C70.2974 14.7446 70.0455 14.6634 69.7505 14.6634C69.4489 14.6634 69.1937 14.7462 68.9849 14.9119C68.7761 15.0777 68.617 15.3113 68.5076 15.6129C68.4016 15.9145 68.3485 16.2708 68.3485 16.6818C68.3485 17.0928 68.4032 17.4508 68.5126 17.7557C68.622 18.0606 68.7794 18.2976 68.9849 18.4666C69.1937 18.6323 69.4489 18.7152 69.7505 18.7152ZM75.0714 20.5V12.8636H77.5025V20.5H75.0714ZM76.2894 11.9737C75.948 11.9737 75.6547 11.861 75.4094 11.6357C75.1642 11.407 75.0415 11.1319 75.0415 10.8104C75.0415 10.4922 75.1642 10.2204 75.4094 9.99503C75.6547 9.76633 75.948 9.65199 76.2894 9.65199C76.6341 9.65199 76.9274 9.76633 77.1694 9.99503C77.4147 10.2204 77.5373 10.4922 77.5373 10.8104C77.5373 11.1319 77.4147 11.407 77.1694 11.6357C76.9274 11.861 76.6341 11.9737 76.2894 11.9737ZM82.6195 20.6442C81.8207 20.6442 81.1313 20.4867 80.5513 20.1719C79.9746 19.8537 79.5305 19.4013 79.2189 18.8146C78.9107 18.2247 78.7566 17.5237 78.7566 16.7116C78.7566 15.9228 78.9123 15.2334 79.2239 14.6435C79.5355 14.0502 79.9746 13.5895 80.5414 13.2614C81.1081 12.9299 81.776 12.7642 82.5449 12.7642C83.0885 12.7642 83.5856 12.8487 84.0364 13.0178C84.4872 13.1868 84.8766 13.437 85.2047 13.7685C85.5328 14.0999 85.7881 14.5092 85.9703 14.9964C86.1526 15.4804 86.2438 16.0355 86.2438 16.6619V17.2685H79.6067V15.8565H83.9817C83.9784 15.598 83.9171 15.3677 83.7978 15.1655C83.6784 14.9633 83.5144 14.8059 83.3056 14.6932C83.1001 14.5772 82.8631 14.5192 82.5946 14.5192C82.3229 14.5192 82.0792 14.5805 81.8638 14.7031C81.6484 14.8224 81.4777 14.9865 81.3517 15.1953C81.2258 15.4008 81.1595 15.6345 81.1529 15.8963V17.3331C81.1529 17.6446 81.2142 17.9181 81.3368 18.1534C81.4595 18.3854 81.6335 18.5661 81.8588 18.6953C82.0842 18.8246 82.3527 18.8892 82.6642 18.8892C82.8797 18.8892 83.0752 18.8594 83.2509 18.7997C83.4266 18.7401 83.5774 18.6522 83.7033 18.5362C83.8292 18.4202 83.9237 18.2777 83.9867 18.1087L86.2189 18.1733C86.1261 18.6738 85.9223 19.1096 85.6074 19.4808C85.2959 19.8487 84.8865 20.1354 84.3794 20.3409C83.8723 20.5431 83.2857 20.6442 82.6195 20.6442ZM89.9165 16.1449V20.5H87.4854V12.8636H89.7972V14.2656H89.8817C90.0508 13.7983 90.3391 13.4321 90.7468 13.1669C91.1545 12.8984 91.64 12.7642 92.2035 12.7642C92.7404 12.7642 93.2061 12.8852 93.6005 13.1271C93.9982 13.3658 94.3065 13.7005 94.5252 14.1314C94.7473 14.5589 94.8567 15.0594 94.8533 15.6328V20.5H92.4222V16.1101C92.4255 15.6858 92.3178 15.3544 92.0991 15.1158C91.8836 14.8771 91.5837 14.7578 91.1992 14.7578C90.944 14.7578 90.7186 14.8142 90.5231 14.9268C90.3308 15.0362 90.1817 15.1937 90.0756 15.3991C89.9729 15.6046 89.9199 15.8532 89.9165 16.1449ZM100.669 12.8636V14.6534H95.8514V12.8636H100.669ZM96.8606 11.0341H99.2917V18.0987C99.2917 18.2479 99.3149 18.3688 99.3613 18.4616C99.411 18.5511 99.4823 18.6158 99.5751 18.6555C99.6679 18.692 99.7789 18.7102 99.9082 18.7102C100.001 18.7102 100.099 18.7019 100.202 18.6854C100.308 18.6655 100.387 18.6489 100.44 18.6357L100.808 20.3906C100.692 20.4238 100.528 20.4652 100.316 20.5149C100.107 20.5646 99.8568 20.5961 99.5652 20.6094C98.9951 20.6359 98.5062 20.5696 98.0985 20.4105C97.6942 20.2481 97.3843 19.9962 97.1689 19.6548C96.9567 19.3134 96.854 18.8842 96.8606 18.3672V11.0341ZM103.276 20.6442C102.919 20.6442 102.612 20.5182 102.357 20.2663C102.105 20.0144 101.981 19.7095 101.984 19.3516C101.981 19.0002 102.105 18.7003 102.357 18.4517C102.612 18.1998 102.919 18.0739 103.276 18.0739C103.615 18.0739 103.913 18.1998 104.171 18.4517C104.433 18.7003 104.566 19.0002 104.569 19.3516C104.566 19.5902 104.503 19.8073 104.38 20.0028C104.261 20.1984 104.103 20.3542 103.908 20.4702C103.716 20.5862 103.505 20.6442 103.276 20.6442ZM109.74 20.6442C108.934 20.6442 108.243 20.4785 107.666 20.147C107.093 19.8156 106.652 19.3549 106.344 18.7649C106.036 18.1716 105.882 17.4856 105.882 16.7067C105.882 15.9245 106.036 15.2384 106.344 14.6484C106.655 14.0552 107.098 13.5928 107.671 13.2614C108.248 12.9299 108.936 12.7642 109.735 12.7642C110.441 12.7642 111.055 12.8918 111.579 13.147C112.106 13.4022 112.517 13.7635 112.812 14.2308C113.11 14.6948 113.268 15.2401 113.284 15.8665H111.012C110.966 15.4754 110.833 15.1688 110.615 14.9467C110.399 14.7247 110.117 14.6136 109.769 14.6136C109.488 14.6136 109.241 14.6932 109.029 14.8523C108.816 15.008 108.651 15.2401 108.531 15.5483C108.415 15.8532 108.357 16.2311 108.357 16.6818C108.357 17.1326 108.415 17.5137 108.531 17.8253C108.651 18.1335 108.816 18.3672 109.029 18.5263C109.241 18.6821 109.488 18.7599 109.769 18.7599C109.995 18.7599 110.194 18.7119 110.366 18.6158C110.542 18.5196 110.686 18.3788 110.798 18.1932C110.911 18.0043 110.982 17.7756 111.012 17.5071H113.284C113.261 18.1368 113.104 18.687 112.812 19.1577C112.524 19.6283 112.118 19.9946 111.594 20.2564C111.074 20.5149 110.455 20.6442 109.74 20.6442ZM118.093 20.6442C117.291 20.6442 116.602 20.4801 116.025 20.152C115.451 19.8205 115.009 19.3598 114.697 18.7699C114.389 18.1766 114.235 17.4889 114.235 16.7067C114.235 15.9212 114.389 15.2334 114.697 14.6435C115.009 14.0502 115.451 13.5895 116.025 13.2614C116.602 12.9299 117.291 12.7642 118.093 12.7642C118.895 12.7642 119.583 12.9299 120.156 13.2614C120.733 13.5895 121.175 14.0502 121.484 14.6435C121.795 15.2334 121.951 15.9212 121.951 16.7067C121.951 17.4889 121.795 18.1766 121.484 18.7699C121.175 19.3598 120.733 19.8205 120.156 20.152C119.583 20.4801 118.895 20.6442 118.093 20.6442ZM118.108 18.8097C118.4 18.8097 118.647 18.7202 118.849 18.5412C119.051 18.3622 119.205 18.1136 119.311 17.7955C119.42 17.4773 119.475 17.1094 119.475 16.6918C119.475 16.2675 119.42 15.8963 119.311 15.5781C119.205 15.2599 119.051 15.0114 118.849 14.8324C118.647 14.6534 118.4 14.5639 118.108 14.5639C117.806 14.5639 117.551 14.6534 117.342 14.8324C117.137 15.0114 116.979 15.2599 116.87 15.5781C116.764 15.8963 116.711 16.2675 116.711 16.6918C116.711 17.1094 116.764 17.4773 116.87 17.7955C116.979 18.1136 117.137 18.3622 117.342 18.5412C117.551 18.7202 117.806 18.8097 118.108 18.8097Z" fill="#2E4049"/>
<defs>
<clipPath id="clip0_1_13263">
<rect width="27" height="30" fill="white"/>
</clipPath>
</defs>
</svg>
